<?xml version="1.0" encoding="UTF-8" standalone="no"?>
<!DOCTYPE svg PUBLIC "-//W3C//DTD SVG 1.1//EN" "http://www.w3.org/Graphics/SVG/1.1/DTD/svg11.dtd">
<svg width="100%" height="100%" viewBox="0 0 893 300" version="1.1" xmlns="http://www.w3.org/2000/svg" xmlns:xlink="http://www.w3.org/1999/xlink" xml:space="preserve" xmlns:serif="http://www.serif.com/" style="fill-rule:evenodd;clip-rule:evenodd;stroke-linejoin:round;stroke-miterlimit:2;">
    <g transform="matrix(4.16667,0,0,4.16667,0,0)">
        <path d="M110.026,43.565C109.644,39.135 107.458,36.784 103.409,36.784C100.129,36.784 97.122,38.643 96.464,43.565L110.026,43.565ZM89.628,46.41C89.628,35.362 97.449,31.316 103.465,31.316C109.973,31.316 116.207,35.198 116.207,47.009L116.207,48.595L96.356,48.595C96.628,53.845 99.856,56.141 104.122,56.141C107.894,56.141 110.082,54.884 112.27,52.752L115.824,56.251C112.815,59.587 108.825,61.501 103.629,61.501C96.356,61.501 89.628,57.073 89.628,46.41ZM73.113,60.9L73.113,37.222L68.082,37.222L68.082,31.862L73.113,31.862L73.113,28.911C73.113,24.043 75.136,20.27 82.519,20.27C83.778,20.27 86.019,20.489 86.51,20.543L86.51,25.738C86.074,25.627 84.979,25.519 84.213,25.519C81.809,25.519 79.839,26.176 79.839,29.293L79.839,31.862L86.182,31.862L86.182,37.222L79.839,37.222L79.839,60.9L73.113,60.9ZM55.45,52.807L55.45,46.41C47.411,47.502 43.146,49.471 43.146,52.642C43.146,54.94 44.732,56.141 47.194,56.141C50.638,56.141 53.317,54.83 55.45,52.807ZM36.529,53.9C36.529,47.611 41.889,43.401 55.45,41.87L55.45,40.995C55.45,38.096 53.919,36.839 50.694,36.839C46.645,36.839 43.365,38.808 40.905,40.777L37.624,36.565C40.741,33.722 45.608,31.316 51.623,31.316C59.387,31.316 62.067,35.035 62.067,41.815L62.067,53.791C62.067,57.291 62.286,59.424 62.887,60.9L56.107,60.9C55.724,59.697 55.45,58.823 55.45,57.181C52.497,60.19 49.052,61.337 44.732,61.337C40.029,61.337 36.529,58.712 36.529,53.9ZM0,51.385L5.414,48.542C7.819,53.298 11.538,55.595 16.568,55.595C21.49,55.595 24.826,54.009 24.826,50.345C24.826,46.845 22.311,45.206 15.638,43.237C7.819,40.941 1.531,38.808 1.531,31.096C1.531,24.207 7.164,19.667 15.367,19.667C23.348,19.667 28.051,23.606 30.513,28.362L25.537,31.808C23.131,27.76 19.685,25.902 15.311,25.902C10.827,25.902 8.256,27.543 8.256,30.495C8.256,34.269 11.155,35.526 17.771,37.495C25.427,39.738 31.551,42.252 31.551,49.854C31.551,56.471 25.919,61.665 16.295,61.665C8.256,61.665 2.569,57.508 0,51.385Z" style="fill:rgb(75,79,84);fill-rule:nonzero;"/>
        <path d="M186.643,71.29L187.735,67.517C188.555,67.736 189.979,68.008 192.001,68.008C194.952,68.008 196.376,66.751 197.522,63.909L198.615,61.064L187.461,32.026L192.438,32.026L200.916,55.376L201.022,55.376L209.5,32.026L214.256,32.026L201.898,64.181C199.93,69.266 197.687,72 192.054,72C189.483,72 187.899,71.673 186.643,71.29ZM178.71,44.002C178.329,38.862 175.869,35.362 171.108,35.362C167.229,35.362 163.564,38.042 162.909,44.002L178.71,44.002ZM158.096,46.462C158.096,35.963 165.096,31.426 171.166,31.426C178.002,31.426 183.196,36.238 183.196,46.682L183.196,47.666L162.799,47.666C162.963,54.174 166.736,57.674 171.493,57.674C175.648,57.674 178.002,55.978 180.188,52.971L182.922,55.376C180.241,59.206 176.577,61.501 171.166,61.501C164.33,61.501 158.096,56.524 158.096,46.462ZM124.629,60.9L124.629,20.433L129.438,20.433L129.438,41.324L147.761,20.433L153.557,20.433L139.664,35.855L155.469,60.9L149.946,60.9L136.495,39.518L129.438,47.228L129.438,60.9L124.629,60.9Z" style="fill:rgb(141,144,144);fill-rule:nonzero;"/>
        <path d="M155.571,4.301L153.524,4.301L153.524,2.159L155.579,2.159C156.394,2.159 156.981,2.459 156.981,3.191C156.981,3.924 156.376,4.301 155.571,4.301ZM156.419,0.225L153.524,0.225L149.63,0.225L149.63,9.664L153.524,9.664L153.524,6.313L156.07,6.313C157.252,6.313 158.256,6.222 159.171,5.838C160.235,5.391 161.012,4.623 161.012,3.225C161.012,0.653 158.744,0.225 156.419,0.225ZM121.429,0.225L131.147,0.225L131.147,2.159L125.726,2.159L125.726,3.924L131.147,3.924L131.147,5.75L125.726,5.75L125.726,7.595L131.147,7.595L131.147,9.664L121.429,9.664L121.429,0.225ZM87.793,5.668L89.257,2.625L90.714,5.668L87.793,5.668ZM86.752,0.225L81.92,9.664L85.883,9.664L86.772,7.805L91.739,7.805L92.63,9.664L96.828,9.664L91.997,0.225L86.752,0.225ZM108.679,0.225L112.57,0.225L112.57,9.664L108.092,9.664L102.351,4.337L102.351,9.664L98.457,9.664L98.457,0.225L102.888,0.225L108.679,5.573L108.679,0.225ZM169.115,4.472L166.805,4.472L166.805,2.237L169.122,2.237C169.944,2.237 170.532,2.632 170.532,3.366C170.532,4.099 169.927,4.472 169.115,4.472ZM174.555,3.225C174.555,0.653 172.291,0.225 169.97,0.225L166.805,0.225L162.913,0.225L162.913,9.664L166.805,9.664L166.805,6.157L167.118,6.157L170.072,9.664L175.541,9.664L171.564,5.947C173.473,5.623 174.555,4.623 174.555,3.225ZM213.608,6.851C213.608,7.812 212.825,9.964 208.022,9.964C204.07,9.964 202.632,9.166 201.784,8.692L203.048,7.004C204.7,7.652 205.992,7.68 206.933,7.669C207.933,7.656 208.866,7.47 208.877,6.854C208.891,6.21 208.254,6.057 206.747,5.943C205.352,5.836 202.29,5.448 202.269,3.225C202.244,1.062 204.544,0.009 207.844,0.009C209.639,0.009 211.846,0.284 213.405,1.123L212.063,2.782C210.846,2.352 209.909,2.26 208.973,2.26C207.954,2.26 206.907,2.443 206.907,3.145C206.907,3.851 207.99,3.875 208.759,3.963C209.745,4.081 211.017,4.099 212.038,4.554C213.259,5.099 213.608,5.85 213.608,6.851ZM200.517,6.851C200.517,7.812 199.727,9.964 194.924,9.964C190.976,9.964 189.722,9.166 188.878,8.692L189.953,7.004C191.605,7.652 192.901,7.68 193.838,7.669C194.842,7.656 195.774,7.47 195.778,6.854C195.789,6.21 195.155,6.057 193.649,5.943C192.257,5.836 189.38,5.448 189.359,3.225C189.334,1.062 191.441,0.009 194.753,0.009C196.544,0.009 198.755,0.284 200.307,1.123L198.972,2.782C197.747,2.352 196.814,2.26 195.874,2.26C194.856,2.26 193.816,2.443 193.816,3.145C193.816,3.851 194.892,3.875 195.664,3.963C196.65,4.081 197.918,4.099 198.947,4.554C200.168,5.099 200.517,5.85 200.517,6.851ZM177.339,0.225L187.059,0.225L187.059,2.159L181.637,2.159L181.637,3.924L187.059,3.924L187.059,5.75L181.637,5.75L181.637,7.595L187.059,7.595L187.059,9.664L177.339,9.664L177.339,0.225ZM143.242,4.794L147.61,9.664L142.972,9.664L140.423,6.637L137.877,9.664L133.234,9.664L137.613,4.794L133.676,0.225L138.39,0.225L140.423,2.743L142.463,0.225L147.177,0.225L143.242,4.794ZM32.055,0.225L34.337,9.664L30.432,9.664L29.143,4.316L26.647,9.664L24.181,9.664L21.684,4.316L20.395,9.664L16.732,9.664L19.014,0.225L23.196,0.225L25.418,4.891L27.631,0.225L32.055,0.225ZM7.315,5.668L8.774,2.625L10.234,5.668L7.315,5.668ZM6.271,0.225L1.442,9.664L5.401,9.664L6.291,7.805L11.257,7.805L12.148,9.664L16.349,9.664L11.516,0.225L6.271,0.225ZM36.406,0.225L46.124,0.225L46.124,2.159L40.707,2.159L40.707,3.924L46.124,3.924L46.124,5.75L40.707,5.75L40.707,7.595L46.124,7.595L46.124,9.664L36.406,9.664L36.406,0.225ZM63.27,0.225L67.393,0.225L67.393,9.664L63.27,9.664L63.27,0.225ZM77.065,0C78.796,0 80.085,0.253 80.793,0.521L80.793,2.834C80.071,2.653 79.053,2.432 77.743,2.432C77.095,2.432 74.043,2.532 74.043,5.021C74.043,7.509 77.095,7.535 77.743,7.535C78.939,7.535 80.071,7.316 80.793,7.128L80.793,9.45C80.085,9.713 78.796,9.964 77.065,9.964C75.026,9.964 69.732,9.415 69.732,5.021C69.732,0.627 75.026,0 77.065,0ZM55.179,4.472L52.871,4.472L52.871,2.237L55.19,2.237C56.007,2.237 56.596,2.632 56.596,3.366C56.596,4.099 55.988,4.472 55.179,4.472ZM60.62,3.225C60.62,0.653 58.353,0.225 56.032,0.225L52.871,0.225L48.975,0.225L48.975,9.664L52.871,9.664L52.871,6.157L53.18,6.157L56.137,9.664L61.608,9.664L57.628,5.947C59.538,5.623 60.62,4.623 60.62,3.225Z" style="fill:rgb(27,45,96);fill-rule:nonzero;"/>
    </g>
</svg>
