<?xml version="1.0" encoding="UTF-8" standalone="no"?>
<!DOCTYPE svg PUBLIC "-//W3C//DTD SVG 1.1//EN" "http://www.w3.org/Graphics/SVG/1.1/DTD/svg11.dtd">
<svg width="100%" height="100%" viewBox="0 0 180 64" version="1.1" xmlns="http://www.w3.org/2000/svg" xmlns:xlink="http://www.w3.org/1999/xlink" xml:space="preserve" xmlns:serif="http://www.serif.com/" style="fill-rule:evenodd;clip-rule:evenodd;stroke-linejoin:round;stroke-miterlimit:2;">
    <g transform="matrix(1,0,0,1,-216,-364.017)">
        <g>
            <path d="M386.151,389.101C386.151,387.152 387.689,385.562 389.536,385.562C391.434,385.562 392.922,387.152 392.922,389.101C392.922,391.05 391.434,392.641 389.536,392.641C387.689,392.692 386.151,391.102 386.151,389.101ZM389.536,391.871C390.973,391.871 392.101,390.64 392.101,389.152C392.101,387.665 390.921,386.434 389.536,386.434C388.1,386.434 386.971,387.665 386.971,389.152C386.971,390.64 388.1,391.871 389.536,391.871ZM389.074,390.691L388.356,390.691L388.356,387.562L389.639,387.562C389.895,387.562 390.203,387.562 390.408,387.716C390.665,387.87 390.767,388.178 390.767,388.486C390.767,388.844 390.562,389.152 390.254,389.255L390.819,390.64L390.049,390.64L389.587,389.409L389.074,389.409L389.074,390.691ZM389.074,388.947L389.485,388.947C389.639,388.947 389.792,388.947 389.895,388.896C389.998,388.845 390.049,388.691 390.049,388.537C390.049,388.434 389.998,388.28 389.895,388.229C389.792,388.178 389.587,388.178 389.485,388.178L389.126,388.178L389.074,388.947Z" style="fill:rgb(253,12,21);"/>
            <path d="M337.675,365.453L336.752,371.506C334.751,370.429 333.264,370.019 331.673,370.019C327.467,370.019 324.492,374.328 324.492,380.432C324.492,384.638 326.493,387.203 329.775,387.203C331.16,387.203 332.699,386.741 334.597,385.767L333.623,392.127C331.52,392.743 330.186,392.948 328.596,392.948C322.491,392.948 318.695,388.332 318.695,380.945C318.695,370.993 323.928,364.017 331.468,364.017C332.443,364.017 333.315,364.12 334.033,364.325L336.393,364.94C337.008,365.197 337.162,365.248 337.675,365.453Z" style="fill:rgb(253,12,21);"/>
            <path d="M318.85,369.609C318.696,369.557 318.49,369.557 318.285,369.557C316.438,369.557 315.361,370.532 313.617,373.25L314.13,369.813L309,369.813L305.512,392.435L311.206,392.435C313.258,378.585 313.771,376.226 316.49,376.226L316.9,376.226C317.413,373.507 318.08,371.506 319.054,369.66L318.85,369.609Z" style="fill:rgb(253,12,21);"/>
            <path d="M284.942,392.127C283.403,392.641 282.172,392.897 280.89,392.897C278.017,392.897 276.427,391.153 276.427,387.921C276.427,387.306 276.478,386.587 276.581,385.869L276.94,383.664L277.196,381.868L279.659,366.428L285.301,366.428L284.634,369.762L287.558,369.762L286.738,375.251L283.865,375.251L282.377,384.689C282.326,385.1 282.275,385.408 282.275,385.613C282.275,386.793 282.89,387.306 284.224,387.306C284.891,387.306 285.353,387.254 285.763,387.101L284.942,392.127Z" style="fill:rgb(253,12,21);"/>
            <path d="M262.577,376.944C262.577,379.816 263.911,381.766 266.886,383.253C269.143,384.382 269.553,384.741 269.553,385.767C269.553,387.152 268.528,387.819 266.322,387.819C264.629,387.819 263.09,387.562 261.243,386.895L260.474,392.127L260.73,392.179L261.756,392.384C262.115,392.435 262.577,392.538 263.244,392.589C264.577,392.692 265.655,392.794 266.373,392.794C272.323,392.794 275.093,390.383 275.093,385.254C275.093,382.176 273.965,380.329 271.092,378.944C268.732,377.816 268.476,377.559 268.476,376.482C268.476,375.251 269.399,374.635 271.246,374.635C272.374,374.635 273.862,374.789 275.298,374.994L276.119,369.762C274.632,369.506 272.426,369.3 271.143,369.3C264.731,369.301 262.526,372.737 262.577,376.944Z" style="fill:rgb(253,12,21);"/>
            <path d="M382.868,392.384L377.481,392.384L377.738,390.178C376.199,391.922 374.557,392.692 372.506,392.692C368.351,392.692 365.632,388.947 365.632,383.305C365.632,375.764 369.838,369.403 374.865,369.403C377.071,369.403 378.713,370.378 380.303,372.481L381.534,364.53L387.125,364.53L382.868,392.384ZM374.506,387.101C377.174,387.101 379.02,383.971 379.02,379.457C379.02,376.585 377.943,374.995 375.994,374.995C373.429,374.995 371.582,378.175 371.582,382.586C371.582,385.562 372.557,387.101 374.506,387.101Z" style="fill:rgb(253,12,21);"/>
            <path d="M302.896,391.922C300.947,392.538 299.1,392.846 297.048,392.846C290.739,392.846 287.405,389.358 287.405,382.689C287.405,374.892 291.611,369.198 297.305,369.198C301.973,369.198 304.948,372.43 304.948,377.457C304.948,379.098 304.743,380.74 304.23,383.048L292.945,383.048C292.893,383.407 292.893,383.561 292.893,383.766C292.893,386.434 294.586,387.768 297.869,387.768C299.87,387.768 301.716,387.306 303.768,386.331L302.896,391.922ZM299.716,378.431C299.767,377.97 299.767,377.559 299.767,377.303C299.767,375.456 298.792,374.379 297.1,374.379C295.304,374.379 294.022,375.815 293.509,378.431L299.716,378.431Z" style="fill:rgb(253,12,21);"/>
            <path d="M239.801,392.384L234.159,392.384L237.39,370.993L230.106,392.384L226.259,392.384L225.797,371.147L222.36,392.384L217.077,392.384L221.488,364.581L229.644,364.581L229.85,381.817L235.39,364.581L244.213,364.581L239.801,392.384Z" style="fill:rgb(253,12,21);"/>
            <path d="M254.421,382.33C253.805,382.279 253.549,382.228 253.138,382.228C249.907,382.228 248.316,383.407 248.316,385.664C248.316,387.049 249.137,387.972 250.368,387.972C252.625,387.972 254.318,385.664 254.421,382.33ZM258.525,392.384L253.805,392.384L253.908,390.024C252.471,391.922 250.573,392.743 247.957,392.743C244.879,392.743 242.776,390.23 242.776,386.587C242.776,381.047 246.47,377.867 252.728,377.867C253.395,377.867 254.216,377.919 255.036,378.021C255.19,377.252 255.241,376.944 255.241,376.534C255.241,375.046 254.267,374.482 251.6,374.482C250.009,374.482 248.163,374.738 246.88,375.149L246.162,375.405L245.649,375.559L246.418,370.48C249.24,369.609 251.138,369.249 253.189,369.249C258.063,369.249 260.628,371.558 260.628,375.867C260.628,376.995 260.525,377.816 260.166,380.381L259.037,388.434L258.832,389.871L258.678,390.999L258.576,391.82L258.525,392.384Z" style="fill:rgb(253,12,21);"/>
            <path d="M347.473,382.33C346.909,382.279 346.601,382.228 346.191,382.228C342.959,382.228 341.317,383.407 341.317,385.664C341.317,387.049 342.138,387.972 343.369,387.972C345.677,387.972 347.37,385.664 347.473,382.33ZM351.577,392.384L346.857,392.384L346.96,390.024C345.524,391.922 343.626,392.743 341.01,392.743C337.932,392.743 335.828,390.23 335.828,386.587C335.828,381.047 339.522,377.867 345.78,377.867C346.396,377.867 347.268,377.919 348.089,378.021C348.242,377.252 348.294,376.944 348.294,376.534C348.294,375.046 347.319,374.482 344.652,374.482C343.061,374.482 341.215,374.738 339.932,375.149L339.112,375.354L338.599,375.507L339.368,370.429C342.189,369.557 344.087,369.198 346.139,369.198C351.012,369.198 353.577,371.506 353.577,375.815C353.577,376.944 353.475,377.765 353.116,380.329L351.936,388.332L351.782,389.768L351.628,390.896L351.525,391.666L351.577,392.384Z" style="fill:rgb(253,12,21);"/>
            <path d="M367.427,369.609C367.274,369.557 367.068,369.557 366.863,369.557C365.016,369.557 363.939,370.532 362.195,373.25L362.708,369.813L357.578,369.813L354.09,392.435L359.784,392.435C361.836,378.585 362.349,376.226 365.068,376.226L365.478,376.226C365.991,373.507 366.709,371.506 367.632,369.66L367.427,369.609Z" style="fill:rgb(253,12,21);"/>
            <path d="M343.626,414.39C343.626,419.52 342.036,422.547 339.522,422.547C337.675,422.598 336.598,420.546 336.598,417.519C336.598,413.929 338.24,409.825 340.804,409.825C342.907,409.825 343.626,412.031 343.626,414.39ZM349.217,414.442C349.217,408.748 346.396,404.285 341.112,404.285C335.008,404.285 331.058,409.671 331.058,417.622C331.058,423.316 333.418,427.984 339.163,427.984C344.959,427.984 349.217,423.88 349.217,414.442Z" style="fill:rgb(243,174,18);"/>
            <path d="M332.853,400.335L331.981,406.388C330.083,405.311 328.75,404.9 327.262,404.9C323.312,404.9 320.542,409.209 320.542,415.314C320.542,419.52 322.389,422.085 325.467,422.085C326.8,422.085 328.236,421.623 329.981,420.648L329.057,427.009C327.108,427.625 325.826,427.83 324.338,427.83C318.644,427.83 315.053,423.213 315.053,415.827C315.053,405.875 319.978,398.899 327.005,398.899C327.929,398.899 328.698,399.001 329.365,399.206L331.52,399.822C332.238,400.027 332.392,400.079 332.853,400.335Z" style="fill:rgb(243,174,18);"/>
            <path d="M297.818,404.439C297.664,404.387 297.459,404.387 297.253,404.387C295.509,404.387 294.535,405.362 292.893,408.081L293.406,404.644L288.636,404.644L285.404,427.266L290.688,427.266C292.585,413.416 293.098,411.056 295.612,411.056C295.766,411.056 295.766,411.056 296.022,411.107C296.484,408.389 297.151,406.388 298.023,404.541L297.818,404.439Z" style="fill:rgb(243,174,18);"/>
            <path d="M366.966,427.061L361.939,427.061L362.195,424.855C360.759,426.599 359.22,427.368 357.271,427.368C353.423,427.368 350.858,423.624 350.858,417.981C350.858,410.44 354.808,404.08 359.476,404.08C361.528,404.08 363.118,405.054 364.555,407.209L365.734,399.258L370.967,399.258L366.966,427.061ZM359.117,421.726C361.631,421.726 363.323,418.597 363.323,414.083C363.323,411.21 362.349,409.671 360.502,409.671C358.091,409.671 356.398,412.8 356.398,417.263C356.398,420.238 357.322,421.726 359.117,421.726Z" style="fill:rgb(243,174,18);"/>
            <path d="M248.163,426.958C246.367,427.574 244.623,427.881 242.725,427.881C236.826,427.881 233.748,424.393 233.748,417.725C233.748,409.979 237.698,404.234 242.982,404.234C247.342,404.234 250.112,407.414 250.112,412.492C250.112,414.134 249.907,415.775 249.445,418.084L238.929,418.084C238.878,418.443 238.878,418.597 238.878,418.802C238.878,421.418 240.468,422.752 243.546,422.752C245.444,422.752 247.137,422.29 249.035,421.315L248.163,426.958ZM245.187,413.467C245.187,413.005 245.239,412.595 245.239,412.339C245.239,410.492 244.315,409.415 242.725,409.415C241.032,409.415 239.852,410.851 239.339,413.467L245.187,413.467Z" style="fill:rgb(243,174,18);"/>
            <path d="M311.155,426.958C309.359,427.574 307.615,427.881 305.717,427.881C299.767,427.881 296.689,424.393 296.689,417.725C296.689,409.979 300.639,404.234 305.923,404.234C310.283,404.234 313.104,407.414 313.104,412.492C313.104,414.134 312.899,415.775 312.437,418.084L301.921,418.084C301.87,418.443 301.87,418.597 301.87,418.802C301.87,421.418 303.46,422.752 306.538,422.752C308.436,422.752 310.129,422.29 312.027,421.315L311.155,426.958ZM308.18,413.467C308.231,413.005 308.231,412.595 308.231,412.339C308.231,410.492 307.308,409.415 305.717,409.415C304.025,409.415 302.845,410.851 302.332,413.467L308.18,413.467Z" style="fill:rgb(243,174,18);"/>
            <path d="M385.022,426.958C383.175,427.574 381.431,427.881 379.585,427.881C373.685,427.881 370.556,424.393 370.556,417.725C370.556,409.979 374.506,404.234 379.841,404.234C384.201,404.234 386.971,407.414 386.971,412.492C386.971,414.134 386.766,415.775 386.304,418.084L375.788,418.084C375.737,418.443 375.737,418.597 375.737,418.802C375.737,421.418 377.327,422.752 380.405,422.752C382.303,422.752 383.996,422.29 385.894,421.315L385.022,426.958ZM382.047,413.467C382.047,413.005 382.098,412.595 382.098,412.339C382.098,410.492 381.175,409.415 379.585,409.415C377.892,409.415 376.712,410.851 376.199,413.467L382.047,413.467Z" style="fill:rgb(243,174,18);"/>
            <path d="M232.466,405.465C231.44,404.747 230.004,404.182 228.054,404.182C225.9,404.182 224.207,404.644 224.207,406.901C224.207,410.902 232.004,409.415 232.004,418.032C232.004,425.881 226.874,427.932 222.206,427.932C220.155,427.932 217.744,427.266 216,426.445L217.282,420.7C218.359,421.674 220.462,422.341 222.258,422.341C223.95,422.341 226.515,421.879 226.515,418.956C226.515,414.39 218.718,416.083 218.718,408.081C218.718,400.745 223.284,398.591 227.695,398.591C230.157,398.591 232.517,398.95 233.851,399.873L232.466,405.465Z" style="fill:rgb(243,174,18);"/>
            <path d="M263.654,426.958C262.577,427.471 261.089,427.83 258.935,427.83C254.318,427.83 251.446,423.213 251.446,417.571C251.446,410.184 255.601,404.336 261.705,404.336C263.038,404.336 265.09,404.9 266.681,405.824L265.501,411.21C264.372,410.44 263.192,409.979 261.961,409.979C259.14,409.979 257.088,412.595 257.088,417.212C257.088,419.879 258.576,422.085 260.884,422.085C262.269,422.085 263.244,421.777 264.423,421.11L263.654,426.958Z" style="fill:rgb(243,174,18);"/>
            <path d="M283.455,421.264C283.198,423.213 282.942,425.111 282.788,427.112L277.709,427.112L278.12,423.47L278.069,423.47C276.478,425.932 274.837,427.625 271.913,427.625C268.732,427.625 266.989,424.239 266.989,419.879C266.989,418.34 267.091,417.519 267.399,415.16L268.835,404.695L274.529,404.695L272.99,415.211C272.836,416.34 272.631,417.468 272.631,418.648C272.631,419.982 273.247,421.315 274.786,421.213C277.094,421.213 278.479,418.391 278.889,415.057L280.479,404.695L285.968,404.695L283.455,421.264Z" style="fill:rgb(243,174,18);"/>
            <path d="M390.306,426.855L389.434,426.855L389.434,423.111L388.203,423.111L388.203,422.29L391.537,422.29L391.537,423.111L390.306,423.111L390.306,426.855Z" style="fill:rgb(243,174,18);"/>
            <path d="M396,426.855L395.179,426.855L395.179,423.059L394.409,426.855L393.589,426.855L392.819,423.059L392.819,426.855L391.998,426.855L391.998,422.29L393.281,422.29L393.999,425.881L394.05,425.881L394.768,422.29L396,422.29L396,426.855Z" style="fill:rgb(243,174,18);"/>
        </g>
    </g>
</svg>
