<?xml version="1.0" encoding="UTF-8" standalone="no"?>
<!DOCTYPE svg PUBLIC "-//W3C//DTD SVG 1.1//EN" "http://www.w3.org/Graphics/SVG/1.1/DTD/svg11.dtd">
<svg width="100%" height="100%" viewBox="0 0 859 487" version="1.1" xmlns="http://www.w3.org/2000/svg" xmlns:xlink="http://www.w3.org/1999/xlink" xml:space="preserve" xmlns:serif="http://www.serif.com/" style="fill-rule:evenodd;clip-rule:evenodd;stroke-linejoin:round;stroke-miterlimit:2;">
    <g transform="matrix(1,0,0,1,0,-1.3875)">
        <g transform="matrix(4.16667,0,0,4.16667,0,0)">
            <path d="M176.372,77.941C176.086,80.236 175.709,82.44 175.243,84.554C173.282,83.914 171.018,82.889 167.823,83.102C165.916,83.23 163.66,83.963 163.629,85.683C163.595,87.588 166.726,88.721 168.468,89.554C171.609,91.057 174.98,93.06 175.243,97.135C175.444,100.268 173.99,102.993 172.339,104.554C167.943,108.709 158.189,109.148 151.532,106.49C151.947,104.27 152.324,102.012 152.662,99.716C155.239,100.811 158.779,102.291 162.662,101.812C164.43,101.593 166.595,100.562 166.533,98.748C166.456,96.534 162.324,95.218 160.242,94.07C157.823,92.737 155.07,90.519 154.919,87.135C154.819,84.88 155.697,82.768 156.855,81.328C160.292,77.057 169.125,75.538 176.372,77.941Z" style="fill:rgb(58,87,167);"/>
            <path d="M97.32,34.744L106.213,34.744L100.738,69.253L91.844,69.253L97.32,34.744Z" style="fill:rgb(58,87,167);"/>
            <path d="M74.31,41.605L72.936,50.263L75.508,50.263C78.007,50.263 80.373,48.316 80.765,45.934C81.157,43.553 79.433,41.605 76.934,41.605L74.31,41.605ZM66.506,34.743L80.122,34.743C88.786,34.743 91.035,39.732 90.09,45.69C89.3,50.666 85.725,53.987 81.081,55.168L89.706,69.253L78.542,69.253L72.074,55.701L69.923,69.253L61.03,69.253L66.506,34.743Z" style="fill:rgb(58,87,167);"/>
            <path d="M137.934,34.744L146.827,34.744L141.352,69.253L132.458,69.253L137.934,34.744Z" style="fill:rgb(58,87,167);"/>
            <path d="M153.583,34.743L173.109,34.743L171.918,42.247L161.287,42.247L160.351,48.144L170.458,48.144L169.268,55.647L159.16,55.647L158.192,61.75L168.824,61.75L167.633,69.253L148.108,69.253L153.583,34.743Z" style="fill:rgb(58,87,167);"/>
            <path d="M41.692,34.743L61.218,34.743L60.027,42.247L49.396,42.247L48.46,48.144L58.567,48.144L57.376,55.647L47.27,55.647L46.3,61.75L56.933,61.75L55.742,69.253L36.217,69.253L41.692,34.743Z" style="fill:rgb(58,87,167);"/>
            <path d="M112.948,34.743L132.692,34.743L131.502,42.247L120.65,42.247L119.7,48.144L129.574,48.144L128.379,55.647L118.509,55.647L116.35,69.253L107.471,69.253L112.948,34.743Z" style="fill:rgb(58,87,167);"/>
            <path d="M186.045,42.247L187.882,42.247C194.68,42.247 197.337,47.041 196.605,51.667C195.619,57.872 191.158,61.75 185.328,61.75L182.95,61.75L186.045,42.247ZM178.342,34.743L189.932,34.743C203.74,34.743 206.887,45.186 205.805,52.007C204.258,61.75 195.572,69.253 184.457,69.253L172.867,69.253L178.342,34.743Z" style="fill:rgb(58,87,167);"/>
            <path d="M0,30.042L16.452,30.042L18.406,55.113C29.291,36.271 40.354,18.142 51.498,0.333L56.863,0.333C45.065,23.086 33.418,45.985 22.136,69.253L10.058,69.253L7.114,41.605C6.383,34.743 4.997,31.829 0,31.092L0,30.042Z" style="fill:rgb(58,87,167);"/>
            <path d="M6.229,15.785L20.256,21.73L21.475,37.352L22.511,37.352L35.244,15.795L35.244,14.713L6.227,14.713L6.229,15.785Z" style="fill:rgb(248,152,28);"/>
            <path d="M63.895,77.367L69.651,77.367L67.711,90.969C69.355,89.382 71.366,88.4 73.612,88.4C78.231,88.4 81.259,92.851 80.443,98.343C79.627,103.834 75.273,108.289 70.655,108.289C68.378,108.289 66.746,107.263 65.633,105.538L65.327,107.695L59.57,107.695L63.895,77.367ZM71.079,93.971C73.206,93.971 74.651,95.92 74.306,98.322C73.962,100.723 71.959,102.671 69.832,102.671C67.705,102.671 66.26,100.723 66.604,98.322C66.948,95.92 68.952,93.971 71.079,93.971Z" style="fill:rgb(58,87,167);"/>
            <path d="M80.937,88.863L87.844,88.863L90.933,98.504L96.934,88.863L103.609,88.863L86.091,117L79.417,117L86.803,105.135L80.937,88.863Z" style="fill:rgb(58,87,167);"/>
            <path d="M137.931,107.685L142.99,77.358L151.267,77.358L146.208,107.685L137.931,107.685Z" style="fill:rgb(58,87,167);"/>
            <path d="M131.011,77.296C128.159,84.013 125.725,91.149 122.787,97.78L121.924,93.802C121.921,93.787 121.914,93.769 121.911,93.754L122.056,94.462C121.418,92.368 120.333,90.394 118.945,88.583C118.908,88.536 118.872,88.489 118.834,88.442C118.591,88.131 118.333,87.828 118.073,87.526C117.915,87.342 117.753,87.158 117.588,86.976C115.584,84.784 113.155,82.893 110.59,81.393L117.948,107.619L126.819,107.619C130.994,97.386 135.501,87.484 139.722,77.296L131.011,77.296Z" style="fill:rgb(58,87,167);"/>
            <path d="M115.39,77.301L101.859,77.301L101.859,77.961C109.648,79.479 119.482,86.014 122.056,94.462L119.152,80.337C118.755,78.159 117.239,77.301 115.39,77.301Z" style="fill:rgb(248,152,28);"/>
            <path d="M191.715,85.697L187.5,96.974L194.316,96.974L191.715,85.697ZM204.275,107.78L196.694,107.78C196.204,106.334 196.067,104.536 195.565,103.102L185.243,103.102L183.307,107.78L174.597,107.78L185.887,81.812C186.386,80.673 187.283,79.117 187.662,78.425C188.236,77.375 190.455,77.296 191.398,77.296L197.662,77.296L204.275,107.78Z" style="fill:rgb(58,87,167);"/>
        </g>
    </g>
</svg>
