<svg width="100%" height="100%" viewBox="0 0 2096 147" version="1.1" xmlns="http://www.w3.org/2000/svg" xmlns:xlink="http://www.w3.org/1999/xlink" xml:space="preserve" xmlns:serif="http://www.serif.com/" style="fill-rule:evenodd;clip-rule:evenodd;stroke-linejoin:round;stroke-miterlimit:2;">
    <g transform="matrix(1,0,0,1,-192.386,-1166.69)">
        <g transform="matrix(1,0,0,1,70.1989,680.151)">
            <g class="svglogo__peppers" transform="matrix(1,0,0,1,-69.8824,-884.03)">
                <path d="M453.972,1392.24C453.972,1383.33 446.745,1376.11 437.843,1376.11C428.94,1376.11 421.713,1383.33 421.713,1392.24L421.713,1492.2C421.713,1501.1 428.94,1508.33 437.843,1508.33C446.745,1508.33 453.972,1501.1 453.972,1492.2L453.972,1392.24ZM1031.52,1392.24C1031.52,1383.33 1024.29,1376.11 1015.39,1376.11C1006.49,1376.11 999.26,1383.33 999.26,1392.24L999.26,1492.2C999.26,1501.1 1006.49,1508.33 1015.39,1508.33C1024.29,1508.33 1031.52,1501.1 1031.52,1492.2L1031.52,1392.24ZM1174.78,1392.24C1174.78,1383.33 1182.01,1376.11 1190.91,1376.11C1199.81,1376.11 1207.04,1383.33 1207.04,1392.24L1207.04,1492.2C1207.04,1501.1 1199.81,1508.33 1190.91,1508.33C1182.01,1508.33 1174.78,1501.1 1174.78,1492.2L1174.78,1392.24ZM2038.04,1392.24C2038.04,1383.33 2045.27,1376.11 2054.17,1376.11C2063.07,1376.11 2070.3,1383.33 2070.3,1392.24L2070.3,1492.2C2070.3,1501.1 2063.07,1508.33 2054.17,1508.33C2045.27,1508.33 2038.04,1501.1 2038.04,1492.2L2038.04,1392.24Z" style="fill:rgb(69,178,73);"/>
            </g>
            <g class="svglogo__tomato" transform="matrix(1,0,0,1,-69.8824,-884.03)">
                <path d="M525.603,1381.34C558.904,1381.34 585.941,1408.38 585.941,1441.68C585.941,1474.98 558.904,1502.02 525.603,1502.02C492.301,1502.02 465.265,1474.98 465.265,1441.68C465.265,1408.38 492.301,1381.34 525.603,1381.34ZM1103.15,1381.34C1136.45,1381.34 1163.49,1408.38 1163.49,1441.68C1163.49,1474.98 1136.45,1502.02 1103.15,1502.02C1069.85,1502.02 1042.81,1474.98 1042.81,1441.68C1042.81,1408.38 1069.85,1381.34 1103.15,1381.34ZM1966.41,1381.34C1999.71,1381.34 2026.75,1408.38 2026.75,1441.68C2026.75,1474.98 1999.71,1502.02 1966.41,1502.02C1933.11,1502.02 1906.07,1474.98 1906.07,1441.68C1906.07,1408.38 1933.11,1381.34 1966.41,1381.34Z" style="fill:rgb(204,31,38);"/>
            </g>
            <g class="svglogo__text" transform="matrix(1,0,0,1,-69.8824,-713.667)">
                <path d="M668.033,1328.73C679.717,1328.73 687.979,1323.6 692.818,1313.33C695.296,1307.9 697.568,1303.89 699.634,1301.29C701.699,1298.69 704.384,1297.4 707.689,1297.4C711.229,1297.4 714.121,1298.34 716.363,1300.23C718.606,1302.12 719.727,1304.77 719.727,1308.19C719.727,1316.58 714.947,1325.16 705.387,1333.95C695.827,1342.75 682.196,1347.14 664.492,1347.14C643.248,1347.14 626.724,1340.5 614.922,1327.23C603.12,1313.95 597.218,1296.1 597.218,1273.67C597.218,1251.25 603.12,1233.4 614.922,1220.12C626.724,1206.84 642.658,1200.2 662.722,1200.2C682.786,1200.2 698.188,1206.9 708.928,1220.3C719.668,1233.69 725.038,1250.01 725.038,1269.25C725.038,1274.09 724.182,1277.36 722.471,1279.07C720.76,1280.78 718.075,1281.64 714.416,1281.64C710.875,1281.64 703.499,1281.49 692.287,1281.2C681.074,1280.9 671.337,1280.76 663.076,1280.76C654.814,1280.76 647.497,1280.93 641.123,1281.29C641.241,1295.33 643.366,1306.75 647.497,1315.54C651.627,1324.34 658.473,1328.73 668.033,1328.73ZM1429.66,1328.73C1441.35,1328.73 1449.61,1323.6 1454.45,1313.33C1456.93,1307.9 1459.2,1303.89 1461.27,1301.29C1463.33,1298.69 1466.02,1297.4 1469.32,1297.4C1472.86,1297.4 1475.75,1298.34 1478,1300.23C1480.24,1302.12 1481.36,1304.77 1481.36,1308.19C1481.36,1316.58 1476.58,1325.16 1467.02,1333.95C1457.46,1342.75 1443.83,1347.14 1426.12,1347.14C1404.88,1347.14 1388.36,1340.5 1376.56,1327.23C1364.75,1313.95 1358.85,1296.1 1358.85,1273.67C1358.85,1251.25 1364.75,1233.4 1376.56,1220.12C1388.36,1206.84 1404.29,1200.2 1424.35,1200.2C1444.42,1200.2 1459.82,1206.9 1470.56,1220.3C1481.3,1233.69 1486.67,1250.01 1486.67,1269.25C1486.67,1274.09 1485.82,1277.36 1484.1,1279.07C1482.39,1280.78 1479.71,1281.64 1476.05,1281.64C1472.51,1281.64 1465.13,1281.49 1453.92,1281.2C1442.71,1280.9 1432.97,1280.76 1424.71,1280.76C1416.45,1280.76 1409.13,1280.93 1402.76,1281.29C1402.87,1295.33 1405,1306.75 1409.13,1315.54C1413.26,1324.34 1420.11,1328.73 1429.66,1328.73ZM1745.34,1344.49L1728.16,1344.49C1714.83,1344.49 1706.62,1342.6 1703.56,1338.82C1699.54,1343.78 1689.39,1346.26 1673.11,1346.26C1657.76,1346.26 1646.05,1342.72 1637.97,1335.64C1629.88,1328.55 1625.84,1318.52 1625.84,1305.54C1625.84,1292.56 1630.2,1282.11 1638.94,1274.2C1647.67,1266.3 1658.47,1261.69 1671.34,1260.4C1678.54,1259.69 1685.62,1258.8 1692.58,1257.74C1698.36,1256.91 1701.26,1253.73 1701.26,1248.18C1701.26,1238.97 1699.48,1231.78 1695.94,1226.58C1692.4,1221.39 1686.97,1218.79 1679.66,1218.79C1674.94,1218.79 1670.75,1220.06 1667.09,1222.6C1663.43,1225.14 1660.71,1229.24 1658.94,1234.9C1657.06,1241.16 1653.04,1244.29 1646.9,1244.29C1643.48,1244.29 1640.56,1243.08 1638.14,1240.66C1635.72,1238.24 1634.51,1235.32 1634.51,1231.89C1634.51,1224.93 1638.82,1218.06 1647.44,1211.27C1656.05,1204.48 1669.15,1201.09 1686.74,1201.09C1703.26,1201.09 1716.63,1205.19 1726.84,1213.39C1737.05,1221.6 1742.15,1235.49 1742.15,1255.09C1742.03,1262.64 1741.97,1274.74 1741.97,1291.38C1741.97,1298.46 1742.39,1307.61 1743.21,1318.82C1743.57,1324.13 1745.63,1326.78 1749.41,1326.78C1752.12,1326.78 1754.34,1327.67 1756.05,1329.44C1757.76,1331.21 1758.61,1333.28 1758.61,1335.64C1758.61,1338.11 1757.76,1340.21 1756.05,1341.92C1754.34,1343.63 1750.77,1344.49 1745.34,1344.49ZM848.459,1344.49L831.287,1344.49C817.95,1344.49 809.748,1342.6 806.679,1338.82C802.666,1343.78 792.516,1346.26 776.229,1346.26C760.886,1346.26 749.172,1342.72 741.087,1335.64C733.003,1328.55 728.96,1318.52 728.96,1305.54C728.96,1292.56 733.327,1282.11 742.061,1274.2C750.795,1266.3 761.594,1261.69 774.458,1260.4C781.658,1259.69 788.739,1258.8 795.703,1257.74C801.486,1256.91 804.378,1253.73 804.378,1248.18C804.378,1238.97 802.607,1231.78 799.066,1226.58C795.526,1221.39 790.097,1218.79 782.779,1218.79C778.058,1218.79 773.868,1220.06 770.21,1222.6C766.551,1225.14 763.836,1229.24 762.066,1234.9C760.178,1241.16 756.165,1244.29 750.028,1244.29C746.605,1244.29 743.684,1243.08 741.264,1240.66C738.845,1238.24 737.635,1235.32 737.635,1231.89C737.635,1224.93 741.943,1218.06 750.559,1211.27C759.174,1204.48 772.275,1201.09 789.861,1201.09C806.384,1201.09 819.75,1205.19 829.959,1213.39C840.168,1221.6 845.273,1235.49 845.273,1255.09C845.155,1262.64 845.096,1274.74 845.096,1291.38C845.096,1298.46 845.509,1307.61 846.335,1318.82C846.689,1324.13 848.754,1326.78 852.531,1326.78C855.246,1326.78 857.459,1327.67 859.17,1329.44C860.881,1331.21 861.737,1333.28 861.737,1335.64C861.737,1338.11 860.881,1340.21 859.17,1341.92C857.459,1343.63 853.889,1344.49 848.459,1344.49ZM949.033,1344.49L892.382,1344.49C889.903,1344.49 887.809,1343.6 886.097,1341.83C884.386,1340.06 883.53,1338 883.53,1335.64C883.53,1333.16 884.386,1331.06 886.097,1329.35C887.809,1327.64 889.903,1326.78 892.382,1326.78C896.867,1326.78 899.227,1324.42 899.463,1319.7C900.526,1304.36 901.057,1289.02 901.057,1273.67C901.057,1259.87 900.644,1243.93 899.817,1225.87C899.581,1222.1 897.693,1220.21 894.152,1220.21L882.822,1220.74C878.101,1221.09 874.914,1223.51 873.262,1228L870.607,1235.43C869.19,1239.21 866.417,1241.1 862.286,1241.1C856.385,1241.1 853.434,1238.15 853.434,1232.25C853.434,1230 855.972,1222.45 861.047,1209.59C863.289,1203.92 866.358,1201.09 870.253,1201.09C874.147,1201.09 878.75,1201.53 884.061,1202.42C889.372,1203.3 897.516,1203.74 908.492,1203.74L932.923,1203.74C943.899,1203.74 952.043,1203.36 957.354,1202.59C962.665,1201.83 967.268,1201.44 971.163,1201.44C975.058,1201.44 978.126,1204.16 980.369,1209.59C985.444,1222.45 987.981,1230 987.981,1232.25C987.981,1238.15 985.031,1241.1 979.129,1241.1C974.999,1241.1 972.225,1239.21 970.809,1235.43L968.153,1228C966.501,1223.51 963.55,1220.98 959.301,1220.39C956.115,1219.91 952.574,1219.68 948.679,1219.68C944.194,1219.68 941.834,1221.92 941.598,1226.4C940.772,1244.23 940.359,1259.98 940.359,1273.67C940.359,1289.02 940.89,1304.36 941.952,1319.7C942.306,1324.42 944.667,1326.78 949.033,1326.78C951.512,1326.78 953.607,1327.64 955.318,1329.35C957.03,1331.06 957.885,1333.16 957.885,1335.64C957.885,1338 957.03,1340.06 955.318,1341.83C953.607,1343.6 951.512,1344.49 949.033,1344.49ZM1561.6,1344.49C1556.88,1344.49 1548.56,1344.25 1536.63,1343.78C1521.76,1343.78 1512.97,1343.84 1510.26,1343.96C1503.17,1344.31 1497.86,1344.49 1494.32,1344.49C1491.84,1344.49 1489.75,1343.63 1488.04,1341.92C1486.33,1340.21 1485.47,1338.11 1485.47,1335.64C1485.47,1333.28 1486.33,1331.21 1488.04,1329.44C1489.75,1327.67 1491.9,1326.78 1494.5,1326.78C1499.22,1326.78 1501.7,1324.37 1501.93,1319.53C1502.64,1303.12 1503,1287.84 1503,1273.67C1503,1259.51 1502.53,1244.34 1501.58,1228.17C1501.23,1223.1 1498.81,1220.56 1494.32,1220.56C1491.84,1220.56 1489.75,1219.71 1488.04,1218C1486.33,1216.28 1485.47,1214.19 1485.47,1211.71C1485.47,1209.35 1486.33,1207.29 1488.04,1205.52C1489.75,1203.74 1491.84,1202.86 1494.32,1202.86C1497.86,1202.86 1503.17,1202.98 1510.26,1203.21L1524.07,1203.21C1537.4,1203.1 1548.91,1202.98 1558.59,1202.86C1574.17,1202.86 1585.88,1206.02 1593.73,1212.33C1601.58,1218.64 1605.5,1226.4 1605.5,1235.61C1605.5,1246.82 1600.37,1255.73 1590.1,1262.34C1608.51,1269.9 1617.72,1283.12 1617.72,1302C1617.72,1316.16 1612.14,1326.78 1600.99,1333.87C1589.83,1340.95 1576.7,1344.49 1561.6,1344.49ZM1842.86,1344.49C1838.14,1344.49 1829.82,1344.25 1817.9,1343.78C1803.03,1343.78 1794.24,1343.84 1791.52,1343.96C1784.44,1344.31 1779.13,1344.49 1775.59,1344.49C1773.11,1344.49 1771.01,1343.63 1769.3,1341.92C1767.59,1340.21 1766.74,1338.11 1766.74,1335.64C1766.74,1333.28 1767.59,1331.21 1769.3,1329.44C1771.01,1327.67 1773.17,1326.78 1775.76,1326.78C1780.49,1326.78 1782.96,1324.37 1783.2,1319.53C1783.91,1303.12 1784.26,1287.84 1784.26,1273.67C1784.26,1259.51 1783.79,1244.34 1782.85,1228.17C1782.49,1223.1 1780.07,1220.56 1775.59,1220.56C1773.11,1220.56 1771.01,1219.71 1769.3,1218C1767.59,1216.28 1766.74,1214.19 1766.74,1211.71C1766.74,1209.35 1767.59,1207.29 1769.3,1205.52C1771.01,1203.74 1773.11,1202.86 1775.59,1202.86C1779.13,1202.86 1784.44,1202.98 1791.52,1203.21L1805.33,1203.21C1818.67,1203.1 1830.17,1202.98 1839.85,1202.86C1855.43,1202.86 1867.14,1206.02 1874.99,1212.33C1882.84,1218.64 1886.77,1226.4 1886.77,1235.61C1886.77,1246.82 1881.63,1255.73 1871.36,1262.34C1889.78,1269.9 1898.98,1283.12 1898.98,1302C1898.98,1316.16 1893.4,1326.78 1882.25,1333.87C1871.1,1340.95 1857.97,1344.49 1842.86,1344.49ZM1282.9,1344.49L1227.13,1344.49C1224.65,1344.49 1222.56,1343.6 1220.85,1341.83C1219.13,1340.06 1218.28,1338 1218.28,1335.64C1218.28,1333.16 1219.13,1331.06 1220.85,1329.35C1222.56,1327.64 1224.65,1326.78 1227.13,1326.78C1231.61,1326.78 1233.98,1324.42 1234.21,1319.7C1235.27,1303.18 1235.8,1287.84 1235.8,1273.67C1235.8,1259.51 1235.27,1244.17 1234.21,1227.64C1233.98,1222.92 1231.61,1220.56 1227.13,1220.56C1224.65,1220.56 1222.56,1219.68 1220.85,1217.91C1219.13,1216.14 1218.28,1214.07 1218.28,1211.71C1218.28,1209.23 1219.13,1207.14 1220.85,1205.43C1222.56,1203.71 1224.65,1202.86 1227.13,1202.86L1282.9,1202.86C1285.37,1202.86 1287.47,1203.71 1289.18,1205.43C1290.89,1207.14 1291.75,1209.23 1291.75,1211.71C1291.75,1214.07 1290.89,1216.14 1289.18,1217.91C1287.47,1219.68 1285.37,1220.56 1282.9,1220.56C1278.53,1220.56 1276.17,1222.92 1275.81,1227.64C1274.75,1241.81 1274.22,1255.14 1274.22,1267.65C1274.22,1270.02 1274.69,1271.19 1275.64,1271.19C1276.58,1271.19 1280.95,1265.12 1288.74,1252.96L1315.12,1214.19C1317.83,1210.3 1320.75,1207.43 1323.88,1205.6C1327.01,1203.77 1330.69,1202.86 1334.94,1202.86L1347.34,1202.86C1349.82,1202.86 1351.91,1203.71 1353.62,1205.43C1355.33,1207.14 1356.19,1209.23 1356.19,1211.71C1356.19,1214.07 1355.33,1216.14 1353.62,1217.91C1351.91,1219.68 1349.82,1220.56 1347.34,1220.56C1341.32,1220.56 1336.95,1222.51 1334.24,1226.4C1320.19,1247.06 1313.17,1258.33 1313.17,1260.22C1313.17,1261.63 1314.64,1265.29 1317.6,1271.19C1326.45,1288.78 1335.95,1304.71 1346.1,1318.99C1348.93,1323.01 1352.94,1325.01 1358.14,1325.01C1360.61,1325.01 1362.71,1325.96 1364.42,1327.85C1366.13,1329.74 1366.99,1332.04 1366.99,1334.75C1366.99,1337.35 1366.13,1339.62 1364.42,1341.57C1362.71,1343.51 1360.61,1344.49 1358.14,1344.49L1322.73,1344.49C1318.36,1344.49 1315.12,1343.6 1312.99,1341.83C1310.87,1340.06 1308.92,1337.41 1307.15,1333.87C1293.46,1307.9 1285.85,1294.92 1284.31,1294.92C1282.66,1294.92 1280.71,1296.22 1278.47,1298.81C1276.11,1301.41 1274.93,1305.07 1274.93,1309.79C1275.05,1314.75 1275.16,1318.79 1275.28,1321.92C1275.4,1325.04 1277.94,1326.67 1282.9,1326.78C1285.37,1326.78 1287.47,1327.64 1289.18,1329.35C1290.89,1331.06 1291.75,1333.16 1291.75,1335.64C1291.75,1338 1290.89,1340.06 1289.18,1341.83C1287.47,1343.6 1285.37,1344.49 1282.9,1344.49ZM410.409,1281.03L293.01,1281.03C293.01,1281.03 292.986,1270.24 292.98,1270.06C292.237,1252.06 278.444,1235.36 260.697,1231.5C246.35,1228.37 230.48,1233.64 220.84,1244.77C211.351,1255.72 208.312,1271.88 213.221,1285.54C217.789,1298.24 229.003,1308.37 242.136,1311.58C257.24,1315.27 274.194,1309.42 283.972,1297.35C283.972,1297.35 288.174,1293.28 292.725,1294C299.155,1295.02 303.027,1303.66 298.303,1309.45C284.16,1326.78 260.519,1334.79 239.135,1330.13C213.681,1324.58 193.143,1301.13 192.108,1273.96C191.157,1248.96 207.573,1224.32 230.996,1215.57C237.79,1213.03 245.017,1211.78 252.299,1211.81C276.842,1212.04 300.536,1228.62 308.611,1252.46C309.693,1255.66 310.501,1258.95 311.026,1262.28L410.409,1262.28L410.409,1281.03ZM1557.52,1327.67C1571.69,1327.67 1578.77,1318.52 1578.77,1300.23C1578.77,1292.79 1576.7,1286.66 1572.57,1281.82C1568.44,1276.98 1562.42,1274.5 1554.52,1274.38L1547.61,1274.38C1543.13,1274.38 1540.88,1276.45 1540.88,1280.58C1540.88,1298.4 1541.06,1311.74 1541.41,1320.59C1541.53,1325.07 1544.01,1327.37 1548.85,1327.49L1557.52,1327.67ZM1838.79,1327.67C1852.95,1327.67 1860.03,1318.52 1860.03,1300.23C1860.03,1292.79 1857.97,1286.66 1853.84,1281.82C1849.71,1276.98 1843.69,1274.5 1835.78,1274.38L1828.88,1274.38C1824.39,1274.38 1822.15,1276.45 1822.15,1280.58C1822.15,1298.4 1822.33,1311.74 1822.68,1320.59C1822.8,1325.07 1825.28,1327.37 1830.11,1327.49L1838.79,1327.67ZM1680.72,1326.78C1693.58,1326.78 1700.25,1322.71 1700.72,1314.57C1701.2,1306.42 1701.55,1296.33 1701.79,1284.3C1701.79,1279.22 1698.78,1276.68 1692.76,1276.68C1682.96,1276.8 1676,1279.19 1671.87,1283.85C1667.74,1288.52 1665.67,1294.56 1665.67,1302C1665.67,1318.52 1670.69,1326.78 1680.72,1326.78ZM783.841,1326.78C796.706,1326.78 803.374,1322.71 803.846,1314.57C804.318,1306.42 804.673,1296.33 804.909,1284.3C804.909,1279.22 801.899,1276.68 795.88,1276.68C786.084,1276.8 779.12,1279.19 774.99,1283.85C770.859,1288.52 768.793,1294.56 768.793,1302C768.793,1318.52 773.809,1326.78 783.841,1326.78ZM2175.94,1281.04L2081.52,1281.04L2081.52,1262.28L2175.94,1262.28L2176.77,1262.28C2249.83,1262.08 2287.47,1268.57 2287.61,1271.69L2287.61,1271.71C2287.61,1274.83 2249.97,1281.23 2176.77,1281.03L2175.94,1281.04ZM685.382,1262.52C685.382,1250.25 683.11,1239.83 678.566,1231.27C674.022,1222.72 668.741,1218.44 662.722,1218.44C656.702,1218.44 651.568,1223.04 647.319,1232.25C643.071,1241.45 640.946,1251.54 640.946,1262.52C646.847,1262.87 654.224,1263.05 663.076,1263.05C670.865,1263.05 678.301,1262.87 685.382,1262.52ZM1447.02,1262.52C1447.02,1250.25 1444.74,1239.83 1440.2,1231.27C1435.65,1222.72 1430.37,1218.44 1424.35,1218.44C1418.34,1218.44 1413.2,1223.04 1408.95,1232.25C1404.7,1241.45 1402.58,1251.54 1402.58,1262.52C1408.48,1262.87 1415.86,1263.05 1424.71,1263.05C1432.5,1263.05 1439.93,1262.87 1447.02,1262.52ZM1547.97,1258.62L1555.58,1258.45C1563.49,1258.21 1567.44,1251.19 1567.44,1237.38C1567.44,1231.36 1565.76,1226.88 1562.39,1223.93C1559.03,1220.98 1554.93,1219.5 1550.09,1219.5C1544.31,1219.5 1541.41,1221.68 1541.41,1226.05L1541.24,1251.9C1541.24,1256.38 1543.48,1258.62 1547.97,1258.62ZM1829.23,1258.62L1836.84,1258.45C1844.75,1258.21 1848.7,1251.19 1848.7,1237.38C1848.7,1231.36 1847.02,1226.88 1843.66,1223.93C1840.29,1220.98 1836.19,1219.5 1831.35,1219.5C1825.57,1219.5 1822.68,1221.68 1822.68,1226.05L1822.5,1251.9C1822.5,1256.38 1824.74,1258.62 1829.23,1258.62Z" style="fill-rule:nonzero;"/>
            </g>
        </g>
    </g>
</svg>
