<svg width="1055" height="246" viewBox="0 0 1055 246" fill="none" xmlns="http://www.w3.org/2000/svg">
<path fill-rule="evenodd" clip-rule="evenodd" d="M489.601 192.99C489.601 188.966 486.34 185.706 482.325 185.706C478.31 185.706 475.049 188.966 475.049 192.99V238.133C475.049 242.152 478.31 245.417 482.325 245.417C486.34 245.417 489.601 242.152 489.601 238.133V192.99Z" fill="#45B249"/>
<path fill-rule="evenodd" clip-rule="evenodd" d="M566.61 192.992C566.61 188.968 563.349 185.708 559.334 185.708C555.32 185.708 552.058 188.968 552.058 192.992V238.135C552.058 242.154 555.32 245.419 559.334 245.419C563.349 245.419 566.61 242.154 566.61 238.135V192.992Z" fill="#45B249"/>
<path fill-rule="evenodd" clip-rule="evenodd" d="M520.73 186.187C505.709 186.187 493.512 198.398 493.512 213.437C493.512 228.476 505.709 240.687 520.73 240.687C535.751 240.687 547.949 228.476 547.949 213.437C547.949 198.398 535.751 186.187 520.73 186.187Z" fill="#CC1F26"/>
<path fill-rule="evenodd" clip-rule="evenodd" d="M109.597 192.99C109.597 188.966 106.336 185.706 102.321 185.706C98.3068 185.706 95.0454 188.966 95.0454 192.99V238.133C95.0454 242.152 98.3068 245.417 102.321 245.417C106.336 245.417 109.597 242.152 109.597 238.133V192.99Z" fill="#45B249"/>
<path fill-rule="evenodd" clip-rule="evenodd" d="M186.609 192.992C186.609 188.968 183.347 185.708 179.333 185.708C175.318 185.708 172.056 188.968 172.056 192.992V238.135C172.056 242.154 175.318 245.419 179.333 245.419C183.347 245.419 186.609 242.154 186.609 238.135V192.992Z" fill="#45B249"/>
<path fill-rule="evenodd" clip-rule="evenodd" d="M140.729 186.187C125.707 186.187 113.51 198.398 113.51 213.437C113.51 228.476 125.707 240.687 140.729 240.687C155.75 240.687 167.947 228.476 167.947 213.437C167.947 198.398 155.75 186.187 140.729 186.187Z" fill="#CC1F26"/>
<path fill-rule="evenodd" clip-rule="evenodd" d="M927.284 192.99C927.284 188.966 924.022 185.706 920.008 185.706C915.993 185.706 912.732 188.966 912.732 192.99V238.133C912.732 242.152 915.993 245.417 920.008 245.417C924.022 245.417 927.284 242.152 927.284 238.133V192.99Z" fill="#45B249"/>
<path fill-rule="evenodd" clip-rule="evenodd" d="M1004.29 192.992C1004.29 188.968 1001.03 185.708 997.018 185.708C993.004 185.708 989.742 188.968 989.742 192.992V238.135C989.742 242.154 993.004 245.419 997.018 245.419C1001.03 245.419 1004.29 242.154 1004.29 238.135V192.992Z" fill="#45B249"/>
<path fill-rule="evenodd" clip-rule="evenodd" d="M958.414 186.187C943.393 186.187 931.195 198.398 931.195 213.437C931.195 228.476 943.393 240.687 958.414 240.687C973.435 240.687 985.633 228.476 985.633 213.437C985.633 198.398 973.435 186.187 958.414 186.187Z" fill="#CC1F26"/>
<path d="M277.866 237.814C282.669 237.814 286.063 235.706 288.052 231.486C289.071 229.255 290.004 227.607 290.855 226.539C291.701 225.471 292.806 224.94 294.162 224.94C295.617 224.94 296.805 225.327 297.729 226.103C298.65 226.88 299.11 227.969 299.11 229.374C299.11 232.822 297.146 236.347 293.217 239.959C289.289 243.575 283.688 245.379 276.411 245.379C267.683 245.379 260.895 242.651 256.046 237.198C251.194 231.741 248.769 224.406 248.769 215.19C248.769 205.977 251.194 198.642 256.046 193.185C260.895 187.728 267.441 185 275.684 185C283.931 185 290.259 187.753 294.672 193.259C299.085 198.761 301.292 205.467 301.292 213.373C301.292 215.362 300.942 216.706 300.236 217.408C299.533 218.111 298.432 218.464 296.928 218.464C295.473 218.464 292.441 218.403 287.834 218.284C283.228 218.16 279.226 218.103 275.832 218.103C272.438 218.103 269.43 218.173 266.812 218.321C266.857 224.09 267.733 228.782 269.43 232.394C271.127 236.01 273.942 237.814 277.866 237.814ZM407.582 244.29H400.522C395.045 244.29 391.671 243.514 390.414 241.96C388.762 243.998 384.591 245.017 377.902 245.017C371.594 245.017 366.782 243.563 363.462 240.654C360.138 237.74 358.478 233.619 358.478 228.285C358.478 222.952 360.269 218.658 363.861 215.407C367.448 212.161 371.886 210.267 377.174 209.737C380.133 209.445 383.042 209.079 385.902 208.644C388.277 208.303 389.469 206.996 389.469 204.715C389.469 200.931 388.737 197.977 387.283 195.84C385.828 193.707 383.597 192.639 380.593 192.639C378.654 192.639 376.932 193.161 375.428 194.204C373.924 195.248 372.806 196.933 372.079 199.259C371.306 201.831 369.655 203.117 367.132 203.117C365.726 203.117 364.527 202.62 363.532 201.625C362.538 200.631 362.041 199.431 362.041 198.022C362.041 195.162 363.812 192.339 367.354 189.549C370.891 186.759 376.274 185.366 383.502 185.366C390.291 185.366 395.784 187.05 399.98 190.42C404.175 193.793 406.271 199.501 406.271 207.555C406.222 210.657 406.197 215.629 406.197 222.467C406.197 225.376 406.369 229.136 406.706 233.742C406.854 235.924 407.701 237.013 409.254 237.013C410.368 237.013 411.28 237.379 411.982 238.106C412.685 238.833 413.034 239.684 413.034 240.654C413.034 241.669 412.685 242.531 411.982 243.234C411.28 243.937 409.813 244.29 407.582 244.29ZM332.081 244.29C330.142 244.29 326.723 244.192 321.821 243.998C315.71 243.998 312.099 244.023 310.985 244.072C308.072 244.216 305.89 244.29 304.435 244.29C303.416 244.29 302.557 243.937 301.855 243.234C301.152 242.531 300.799 241.669 300.799 240.654C300.799 239.684 301.152 238.833 301.855 238.106C302.557 237.379 303.441 237.013 304.509 237.013C306.449 237.013 307.468 236.023 307.562 234.034C307.854 227.291 308.002 221.012 308.002 215.19C308.002 209.371 307.809 203.138 307.418 196.493C307.274 194.41 306.28 193.366 304.435 193.366C303.416 193.366 302.557 193.017 301.855 192.314C301.152 191.607 300.799 190.749 300.799 189.73C300.799 188.76 301.152 187.913 301.855 187.186C302.557 186.455 303.416 186.093 304.435 186.093C305.89 186.093 308.072 186.142 310.985 186.237H316.66C322.137 186.192 326.867 186.142 330.844 186.093C337.246 186.093 342.058 187.391 345.284 189.984C348.509 192.577 350.12 195.766 350.12 199.55C350.12 204.157 348.012 207.818 343.792 210.534C351.357 213.64 355.141 219.073 355.141 226.831C355.141 232.649 352.848 237.013 348.267 239.926C343.681 242.836 338.286 244.29 332.081 244.29ZM447.654 244.29C445.714 244.29 442.295 244.192 437.397 243.998C431.287 243.998 427.675 244.023 426.557 244.072C423.648 244.216 421.466 244.29 420.012 244.29C418.993 244.29 418.13 243.937 417.427 243.234C416.724 242.531 416.375 241.669 416.375 240.654C416.375 239.684 416.724 238.833 417.427 238.106C418.13 237.379 419.017 237.013 420.081 237.013C422.025 237.013 423.04 236.023 423.139 234.034C423.43 227.291 423.574 221.012 423.574 215.19C423.574 209.371 423.381 203.138 422.995 196.493C422.847 194.41 421.852 193.366 420.012 193.366C418.993 193.366 418.13 193.017 417.427 192.314C416.724 191.607 416.375 190.749 416.375 189.73C416.375 188.76 416.724 187.913 417.427 187.186C418.13 186.455 418.993 186.093 420.012 186.093C421.466 186.093 423.648 186.142 426.557 186.237H432.232C437.714 186.192 442.439 186.142 446.417 186.093C452.819 186.093 457.63 187.391 460.856 189.984C464.082 192.577 465.697 195.766 465.697 199.55C465.697 204.157 463.584 207.818 459.364 210.534C466.933 213.64 470.714 219.073 470.714 226.831C470.714 232.649 468.421 237.013 463.839 239.926C459.258 242.836 453.862 244.29 447.654 244.29ZM217.561 244.29H194.644C193.625 244.29 192.766 243.924 192.064 243.197C191.357 242.47 191.008 241.623 191.008 240.654C191.008 239.635 191.357 238.772 192.064 238.069C192.766 237.366 193.625 237.013 194.644 237.013C196.485 237.013 197.459 236.043 197.553 234.104C197.989 227.315 198.207 221.012 198.207 215.19C198.207 209.371 197.989 203.068 197.553 196.275C197.459 194.336 196.485 193.366 194.644 193.366C193.625 193.366 192.766 193.005 192.064 192.277C191.357 191.55 191.008 190.699 191.008 189.73C191.008 188.711 191.357 187.852 192.064 187.149C192.766 186.442 193.625 186.093 194.644 186.093H217.561C218.576 186.093 219.439 186.442 220.141 187.149C220.844 187.852 221.197 188.711 221.197 189.73C221.197 190.699 220.844 191.55 220.141 192.277C219.439 193.005 218.576 193.366 217.561 193.366C215.765 193.366 214.795 194.336 214.647 196.275C214.212 202.098 213.994 207.575 213.994 212.716C213.994 213.69 214.187 214.17 214.577 214.17C214.964 214.17 216.759 211.676 219.96 206.68L230.8 190.749C231.914 189.15 233.114 187.971 234.4 187.219C235.686 186.467 237.198 186.093 238.944 186.093H244.04C245.059 186.093 245.917 186.442 246.62 187.149C247.323 187.852 247.676 188.711 247.676 189.73C247.676 190.699 247.323 191.55 246.62 192.277C245.917 193.005 245.059 193.366 244.04 193.366C241.566 193.366 239.77 194.167 238.657 195.766C232.883 204.255 229.999 208.886 229.999 209.663C229.999 210.242 230.603 211.746 231.819 214.17C235.456 221.398 239.359 227.944 243.53 233.812C244.693 235.464 246.341 236.286 248.477 236.286C249.492 236.286 250.355 236.676 251.058 237.453C251.761 238.229 252.114 239.174 252.114 240.288C252.114 241.356 251.761 242.289 251.058 243.09C250.355 243.887 249.492 244.29 248.477 244.29H233.927C232.131 244.29 230.8 243.924 229.925 243.197C229.054 242.47 228.252 241.381 227.525 239.926C221.9 229.255 218.773 223.921 218.14 223.921C217.462 223.921 216.661 224.456 215.74 225.52C214.771 226.588 214.286 228.092 214.286 230.032C214.335 232.07 214.38 233.73 214.429 235.016C214.479 236.298 215.523 236.968 217.561 237.013C218.576 237.013 219.439 237.366 220.141 238.069C220.844 238.772 221.197 239.635 221.197 240.654C221.197 241.623 220.844 242.47 220.141 243.197C219.439 243.924 218.576 244.29 217.561 244.29ZM89.7181 218.214H41.4777C41.4777 218.214 41.4679 213.78 41.4654 213.706C41.1601 206.31 35.4924 199.448 28.2 197.861C22.3047 196.575 15.7836 198.741 11.8224 203.314C7.92326 207.814 6.67451 214.454 8.69166 220.067C10.5687 225.286 15.1766 229.448 20.5731 230.767C26.7795 232.283 33.746 229.88 37.7639 224.92C37.7639 224.92 39.4906 223.247 41.3606 223.543C44.0028 223.962 45.5938 227.513 43.6527 229.892C37.8412 237.013 28.1269 240.304 19.34 238.389C8.88069 236.109 0.441429 226.473 0.0161373 215.309C-0.374638 205.036 6.37085 194.911 15.9956 191.316C18.7873 190.272 21.7569 189.758 24.7492 189.771C34.8341 189.865 44.5702 196.678 47.8883 206.474C48.3329 207.789 48.6649 209.141 48.8807 210.509H89.7181V218.214ZM330.405 237.379C336.227 237.379 339.136 233.619 339.136 226.103C339.136 223.046 338.286 220.527 336.589 218.538C334.892 216.55 332.418 215.531 329.172 215.481H326.332C324.492 215.481 323.567 216.332 323.567 218.029C323.567 225.351 323.641 230.833 323.785 234.469C323.834 236.31 324.853 237.255 326.842 237.305L330.405 237.379ZM445.981 237.379C451.8 237.379 454.709 233.619 454.709 226.103C454.709 223.046 453.862 220.527 452.165 218.538C450.468 216.55 447.995 215.531 444.744 215.481H441.909C440.064 215.481 439.144 216.332 439.144 218.029C439.144 225.351 439.218 230.833 439.361 234.469C439.411 236.31 440.43 237.255 442.414 237.305L445.981 237.379ZM381.029 237.013C386.313 237.013 389.054 235.341 389.247 231.996C389.444 228.647 389.588 224.501 389.686 219.558C389.686 217.47 388.45 216.426 385.976 216.426C381.949 216.476 379.089 217.458 377.392 219.373C375.695 221.292 374.844 223.773 374.844 226.831C374.844 233.619 376.907 237.013 381.029 237.013ZM1021.81 218.218H1009.52V210.509H1021.81H1022.16C1051.61 211.503 1054.39 213.094 1054.45 214.376V214.384C1054.45 215.666 1051.61 217.182 1022.16 218.214L1021.81 218.218ZM284.999 210.608C284.999 205.566 284.062 201.284 282.197 197.767C280.327 194.254 278.157 192.495 275.684 192.495C273.214 192.495 271.102 194.385 269.356 198.17C267.609 201.95 266.738 206.096 266.738 210.608C269.163 210.752 272.195 210.826 275.832 210.826C279.033 210.826 282.086 210.752 284.999 210.608ZM326.48 209.005L329.607 208.935C332.858 208.837 334.481 205.952 334.481 200.278C334.481 197.804 333.79 195.963 332.406 194.751C331.025 193.539 329.34 192.931 327.352 192.931C324.976 192.931 323.785 193.826 323.785 195.622L323.715 206.244C323.715 208.085 324.635 209.005 326.48 209.005ZM442.053 209.005L445.18 208.935C448.43 208.837 450.053 205.952 450.053 200.278C450.053 197.804 449.363 195.963 447.982 194.751C446.598 193.539 444.913 192.931 442.924 192.931C440.549 192.931 439.361 193.826 439.361 195.622L439.287 206.244C439.287 208.085 440.208 209.005 442.053 209.005Z" fill="white"/>
<mask id="path-11-inside-1" fill="white">
<path d="M767.897 186.485C766.259 187.208 764.317 188.617 763.86 191.435C763.366 196.803 766.145 200.04 770.981 200.04C772.732 200.04 773.418 199.85 774.788 198.898C776.578 197.641 778.025 195.204 778.025 193.3C778.025 190.559 776.045 187.551 773.57 186.485C772.047 185.838 769.42 185.838 767.897 186.485Z"/>
</mask>
<path d="M767.897 186.485C766.259 187.208 764.317 188.617 763.86 191.435C763.366 196.803 766.145 200.04 770.981 200.04C772.732 200.04 773.418 199.85 774.788 198.898C776.578 197.641 778.025 195.204 778.025 193.3C778.025 190.559 776.045 187.551 773.57 186.485C772.047 185.838 769.42 185.838 767.897 186.485Z" fill="white"/>
<path d="M767.897 186.485L767.492 185.57L767.499 185.567L767.505 185.564L767.897 186.485ZM763.86 191.435L762.865 191.343C762.867 191.32 762.87 191.297 762.873 191.275L763.86 191.435ZM774.788 198.898L775.363 199.716L775.359 199.719L774.788 198.898ZM773.57 186.485L773.961 185.564L773.966 185.566L773.57 186.485ZM768.301 187.4C766.827 188.051 765.229 189.243 764.848 191.595L762.873 191.275C763.406 187.991 765.692 186.366 767.492 185.57L768.301 187.4ZM764.856 191.527C764.625 194.031 765.17 195.891 766.189 197.109C767.197 198.315 768.792 199.04 770.981 199.04V201.04C768.334 201.04 766.121 200.147 764.654 198.392C763.198 196.65 762.601 194.207 762.865 191.343L764.856 191.527ZM770.981 199.04C771.832 199.04 772.324 198.991 772.743 198.867C773.155 198.745 773.567 198.528 774.218 198.076L775.359 199.719C774.639 200.219 774.023 200.573 773.312 200.784C772.608 200.993 771.881 201.04 770.981 201.04V199.04ZM774.214 198.079C774.974 197.546 775.69 196.737 776.214 195.838C776.743 194.931 777.025 194.02 777.025 193.3H779.025C779.025 194.484 778.584 195.744 777.942 196.845C777.295 197.955 776.393 198.993 775.363 199.716L774.214 198.079ZM777.025 193.3C777.025 192.16 776.608 190.91 775.889 189.812C775.17 188.714 774.197 187.844 773.174 187.403L773.966 185.566C775.418 186.192 776.673 187.359 777.562 188.716C778.452 190.075 779.025 191.699 779.025 193.3H777.025ZM773.179 187.405C772.581 187.151 771.689 186.999 770.733 186.999C769.778 186.999 768.885 187.151 768.288 187.405L767.505 185.564C768.431 185.171 769.614 184.999 770.733 184.999C771.853 184.999 773.035 185.171 773.961 185.564L773.179 187.405Z" fill="white" mask="url(#path-11-inside-1)"/>
<path d="M595.069 185.53C594.46 185.72 592.975 186.063 591.833 186.329C590.691 186.596 588.292 187.51 586.502 188.347C583.799 189.642 582.695 190.48 579.839 193.373C574.051 199.237 571.653 205.596 571.653 215.153C571.653 225.814 575.041 233.201 582.885 239.598C583.761 240.321 588.749 242.872 589.929 243.215C590.462 243.367 591.833 243.748 592.975 244.091C595.755 244.929 606.759 245.005 609.538 244.243C615.973 242.492 619.4 240.664 623.093 237.009C627.053 233.049 628.881 229.888 630.594 224.025C631.394 221.245 631.47 209.518 630.747 206.7C629.148 200.798 626.825 196.572 623.17 192.993C619.248 189.147 615.136 187.053 608.967 185.72C606.34 185.149 597.049 185.035 595.069 185.53ZM601.923 193.754C604.017 194.744 606.53 196.953 608.282 199.275C610.414 202.131 612.623 207.5 613.46 211.84C613.689 212.983 614.031 214.848 614.26 215.953C614.488 217.095 614.679 219.951 614.679 222.311C614.679 229.965 612.737 234.686 608.815 236.514C604.855 238.418 600.362 237.161 596.669 233.201C593.28 229.508 591.3 225.357 589.625 218.161C588.749 214.468 588.635 213.059 588.635 207.271C588.597 201.103 588.673 200.456 589.472 198.742C589.929 197.676 590.767 196.305 591.262 195.62C593.432 192.764 598.077 191.965 601.923 193.754Z" fill="white"/>
<path d="M876.261 185.648C871.159 187.018 868.265 188.465 865.257 191.169C862.82 193.377 859.698 197.642 858.784 200.078C858.517 200.802 858.137 201.716 857.984 202.134C855.586 208.036 855.395 219.688 857.566 226.96C858.175 229.054 860.269 233.09 861.678 234.956C863.353 237.165 866.552 240.249 867.884 240.934C868.417 241.201 869.445 241.772 870.169 242.152C876.718 245.846 889.055 245.846 896.365 242.229C897.241 241.772 897.964 241.277 897.964 241.086C897.964 240.934 898.193 240.782 898.459 240.782C898.916 240.782 902 237.736 903.562 235.756C904.513 234.537 905.503 232.138 905.732 230.425C906.227 226.96 904.475 224.98 900.896 224.98C899.221 224.98 898.916 225.132 897.964 226.237C897.393 226.96 896.327 228.674 895.642 230.044C892.938 235.413 890.083 237.355 884.904 237.355C882.049 237.355 881.554 237.241 879.954 236.213C877.289 234.537 875.652 231.529 874.548 226.237C874.243 224.714 873.976 222.315 873.976 220.906C873.976 218.431 874.014 218.317 875.004 218.088C875.576 217.936 882.544 217.936 890.463 218.088C905.96 218.355 906.646 218.279 907.445 216.489C908.131 215.004 907.94 208.189 907.103 204.952C904.513 194.595 898.307 187.932 889.207 185.724C886.808 185.153 878.279 185.076 876.261 185.648ZM884.866 193.034C886.503 193.796 888.103 195.738 889.435 198.441C890.73 201.068 891.111 202.515 891.606 206.627C891.948 209.445 891.91 210.054 891.453 210.359C891.149 210.549 887.151 210.664 882.544 210.587L874.167 210.511L874.053 208.036C873.9 205.257 874.319 203.429 875.918 199.241C878.165 193.529 881.287 191.359 884.866 193.034Z" fill="white"/>
<path d="M635.012 186.675C633.413 187.665 632.804 189.417 633.489 191.092C634.098 192.501 634.784 192.958 636.878 193.339C639.696 193.872 639.619 193.186 639.619 214.928C639.619 233.966 639.619 234.27 638.82 235.337C638.325 235.984 637.601 236.441 636.916 236.517C633.375 236.86 631.585 239.868 633.451 242.343C634.479 243.675 635.469 243.828 643.77 243.828C651.918 243.828 651.956 243.828 653.06 242.876C653.669 242.343 654.317 241.505 654.431 240.972C654.888 239.106 652.87 236.593 650.852 236.593C648.11 236.555 647.806 234.765 647.806 219.154C647.806 208.607 647.882 207.236 648.415 207.008C649.291 206.665 651.08 208.836 656.259 216.413C658.467 219.649 660.942 223.228 666.692 231.491C670.766 237.316 674.802 241.657 677.315 242.876C678.229 243.294 679.942 243.675 681.503 243.751C685.158 243.942 687.405 242.952 688.471 240.667C689.956 237.469 690.07 235.679 690.07 215.803C690.07 194.824 690.146 194.176 692.126 193.757C692.659 193.643 693.573 193.491 694.106 193.377C696.962 192.767 697.952 189.15 695.744 187.323L694.563 186.333H686.186H677.81L676.706 187.437C674.383 189.759 676.172 193.567 679.561 193.567C681.16 193.567 681.694 194.671 682.074 198.936C682.455 203.353 682.569 222.086 682.227 223.038C682.112 223.381 681.77 223.647 681.503 223.647C681.008 223.647 678.152 220.296 674.992 216.032C674.154 214.89 672.136 212.148 670.499 209.94C668.9 207.731 667.339 205.675 667.11 205.371C666.577 204.685 660.752 195.928 658.543 192.425C656.601 189.341 655.078 187.779 653.213 186.866C651.994 186.256 650.7 186.142 643.998 186.028C636.84 185.952 636.078 185.99 635.012 186.675Z" fill="white"/>
<path d="M702.976 186.827C701.872 187.551 701.682 187.931 701.567 189.378C701.415 191.587 702.253 192.539 705.108 193.376C706.746 193.833 707.317 194.214 707.698 195.014C708.269 196.308 708.535 226.845 708.04 231.909C707.66 235.603 707.165 236.593 705.68 236.593C704.423 236.593 702.367 237.583 701.91 238.42C701.149 239.829 701.415 241.733 702.443 242.799L703.433 243.751L725.022 243.675C736.902 243.599 746.878 243.446 747.183 243.294C748.553 242.685 750.419 238.953 752.704 232.1C754.227 227.721 753.884 225.817 751.371 224.789C749.353 223.951 748.173 224.789 746.497 228.178C745.698 229.777 744.746 231.529 744.403 232.062C742.728 234.575 738.197 236.364 732.143 236.935C728.868 237.24 728.145 237.202 727.002 236.669C725.708 236.06 725.67 235.945 725.441 233.356C724.908 227.911 724.68 209.14 725.022 202.21C725.403 194.214 725.555 193.795 728.183 193.376C730.163 193.034 731.495 191.891 731.8 190.33C732.104 188.693 731.076 186.865 729.553 186.332C728.868 186.104 723.613 185.951 716.341 185.951C704.385 185.951 704.271 185.951 702.976 186.827Z" fill="white"/>
<path d="M792.797 186.561C791.16 187.437 790.436 189.112 790.97 190.749C791.503 192.272 792.493 193.034 794.511 193.377C797.328 193.91 797.252 193.186 797.252 214.928C797.252 233.966 797.252 234.27 796.452 235.337C795.957 235.984 795.234 236.441 794.549 236.517C791.008 236.86 789.218 239.868 791.084 242.343C792.112 243.675 793.102 243.828 801.364 243.828C808.903 243.828 809.589 243.751 810.464 243.066C811.988 241.886 812.483 240.325 811.759 238.954C810.998 237.507 809.741 236.593 808.485 236.593C805.743 236.555 805.438 234.803 805.438 219.383C805.438 208.645 805.515 207.236 806.048 207.008C806.961 206.665 808.941 209.102 814.234 216.984C815.757 219.268 817.128 221.248 817.28 221.363C817.394 221.477 818.727 223.343 820.212 225.551C827.218 235.832 830.036 239.335 833.006 241.581C835.176 243.218 836.965 243.828 839.783 243.828C843.02 243.828 845.495 242.457 846.37 240.21C847.589 237.012 847.665 235.07 847.703 215.918C847.703 194.824 847.779 194.176 849.759 193.757C850.292 193.643 851.206 193.491 851.739 193.377C854.595 192.767 855.585 189.15 853.376 187.323L852.196 186.333H843.819H835.442L834.338 187.437C832.016 189.759 833.767 193.567 837.156 193.567C838.793 193.567 839.25 194.595 839.707 199.088C840.126 203.581 840.24 222.048 839.859 223.038C839.745 223.381 839.402 223.647 839.136 223.647C838.641 223.647 835.785 220.296 832.625 216.032C831.787 214.89 829.769 212.148 828.132 209.94C826.533 207.731 824.972 205.675 824.705 205.333C824.438 204.99 822.649 202.325 820.745 199.431C811.569 185.381 812.483 186.028 801.25 185.99C795.386 185.99 793.597 186.104 792.797 186.561Z" fill="white"/>
<path d="M758.667 203.596C758.664 203.597 758.663 203.597 758.663 203.597L758.655 203.601C756.796 204.615 756.321 206.746 757.477 208.223L757.478 208.224C757.9 208.766 758.629 209.153 760.042 209.45L760.042 209.451C760.61 209.57 761.049 209.628 761.432 209.679C761.623 209.704 761.799 209.728 761.971 209.756C762.445 209.833 762.936 209.957 763.254 210.417C763.536 210.827 763.616 211.42 763.651 212.187C763.68 212.815 763.678 213.649 763.676 214.747C763.676 215.042 763.675 215.356 763.675 215.689C763.675 224.783 763.666 229.527 763.565 232.11C763.515 233.396 763.442 234.18 763.326 234.708C763.203 235.269 763.029 235.554 762.81 235.832C762.256 236.567 761.29 237.072 760.246 237.239L760.246 237.239C758.58 237.505 757.49 238.35 757.052 239.301C756.625 240.228 756.769 241.359 757.779 242.37C758.393 242.983 759.224 243.328 760.092 243.328H770.981H781.87C782.736 243.328 783.567 242.984 784.18 242.372C784.845 241.689 785.121 241.057 785.121 240.467C785.121 239.875 784.842 239.22 784.171 238.496C783.516 237.807 782.739 237.374 781.835 237.24L781.835 237.24L781.83 237.239C781.663 237.213 781.505 237.192 781.35 237.172C781.332 237.17 781.315 237.167 781.297 237.165C781.128 237.143 780.957 237.12 780.795 237.09C780.471 237.029 780.134 236.931 779.833 236.702C779.231 236.244 778.947 235.4 778.767 233.991C778.447 231.498 778.407 226.662 778.326 217.178C778.314 215.763 778.301 214.244 778.287 212.614L778.131 206.753C778.112 206.04 777.835 205.358 777.353 204.834C777.173 204.64 776.842 204.393 776.435 204.156C776.038 203.923 775.606 203.721 775.247 203.601C775.06 203.546 774.681 203.488 774.118 203.435C773.562 203.382 772.864 203.338 772.069 203.303C770.48 203.233 768.525 203.198 766.593 203.201C764.661 203.203 762.759 203.242 761.277 203.318C760.535 203.356 759.905 203.403 759.432 203.459C759.194 203.487 759.004 203.516 758.862 203.545C758.738 203.57 758.681 203.59 758.667 203.596Z" fill="white" stroke="white" stroke-linecap="round"/>
<path d="M359.37 56.8254C356.123 51.4661 350.237 50.7987 343.514 50.7987L306.944 53.4532C305.29 53.5547 304 54.1668 304 55.8245C304 57.6173 305.502 58.2865 307.292 58.1973L339.064 57.9894C341.021 57.9894 342.606 58.8168 342.606 60.7728C342.606 62.7292 341.02 63.5562 339.064 63.5562L307.306 65.9371C305.467 65.9827 304 66.7271 304 68.5668C304 70.4065 305.467 71.1505 307.306 71.1965L339.064 73.5774C341.021 73.5774 342.606 74.4048 342.606 76.3608C342.606 78.3172 341.02 79.1442 339.064 79.1442L307.292 78.9363C305.501 78.8475 304 79.5175 304 81.3092C304 82.9668 305.29 84.3381 306.944 84.4392L343.514 87.095C350.238 87.095 356.123 85.6687 359.37 80.309C361.483 76.8211 369.228 76.395 373.282 76.8446C401.481 76.3608 445.067 75.6956 449.917 75.6956C456.961 75.6956 462.671 73.9154 462.671 68.5672C462.671 63.2191 456.96 61.4388 449.917 61.4388C445.067 61.4388 399.926 60.7728 373.282 60.2899C369.23 60.7399 361.481 60.3117 359.37 56.8254Z" fill="white"/>
<path d="M441.747 122.459C453.046 122.459 461.036 117.572 465.716 107.787C468.112 102.613 470.31 98.7927 472.308 96.3155C474.305 93.8383 476.901 92.6093 480.097 92.6093C483.521 92.6093 486.318 93.5048 488.486 95.3056C490.655 97.1063 491.739 99.6311 491.739 102.89C491.739 110.883 487.117 119.058 477.871 127.433C468.626 135.817 455.444 140 438.322 140C417.778 140 401.797 133.674 390.384 121.03C378.97 108.378 373.263 91.3707 373.263 70.0001C373.263 48.639 378.97 31.632 390.384 18.9792C401.797 6.32643 417.207 0 436.611 0C456.014 0 470.909 6.38365 481.296 19.1508C491.682 31.9083 496.875 47.4575 496.875 65.7888C496.875 70.4002 496.048 73.5157 494.393 75.1449C492.738 76.7742 490.142 77.5936 486.603 77.5936C483.179 77.5936 476.045 77.4506 465.202 77.1743C454.358 76.8885 444.942 76.7552 436.953 76.7552C428.963 76.7552 421.887 76.9172 415.722 77.2602C415.837 90.637 417.892 101.518 421.887 109.893C425.881 118.277 432.501 122.459 441.747 122.459ZM616.234 137.475H599.627C586.729 137.475 578.797 135.674 575.829 132.073C571.948 136.799 562.132 139.162 546.381 139.162C531.543 139.162 520.215 135.789 512.396 129.043C504.578 122.288 500.668 112.732 500.668 100.365C500.668 87.9979 504.891 78.0413 513.338 70.5049C521.784 62.9781 532.228 58.5859 544.669 57.3568C551.632 56.6803 558.48 55.8323 565.214 54.8224C570.807 54.0316 573.604 51.0018 573.604 45.714C573.604 36.939 571.891 30.0885 568.467 25.1341C565.043 20.1892 559.793 17.7121 552.716 17.7121C548.15 17.7121 544.098 18.922 540.56 21.3421C537.022 23.7621 534.396 27.6685 532.684 33.0612C530.859 39.0255 526.978 42.0077 521.043 42.0077C517.732 42.0077 514.908 40.8548 512.567 38.5491C510.228 36.2434 509.058 33.4613 509.058 30.1933C509.058 23.562 513.224 17.0165 521.556 10.5472C529.888 4.07792 542.557 0.847979 559.565 0.847979C575.544 0.847979 588.47 4.75438 598.343 12.5671C608.216 20.3893 613.153 33.6232 613.153 52.2975C613.039 59.4909 612.981 71.0195 612.981 86.8736C612.981 93.6192 613.381 102.337 614.18 113.018C614.522 118.077 616.519 120.602 620.172 120.602C622.797 120.602 624.937 121.45 626.592 123.136C628.247 124.822 629.075 126.795 629.075 129.043C629.075 131.396 628.247 133.397 626.592 135.027C624.937 136.656 621.485 137.475 616.234 137.475ZM713.497 137.475H658.711C656.314 137.475 654.288 136.627 652.633 134.941C650.978 133.254 650.15 131.292 650.15 129.043C650.15 126.68 650.978 124.679 652.633 123.05C654.288 121.421 656.314 120.602 658.711 120.602C663.048 120.602 665.331 118.353 665.559 113.856C666.587 99.2405 667.1 84.6251 667.1 70.0001C667.1 56.8518 666.701 41.6646 665.901 24.4576C665.673 20.8657 663.847 19.0649 660.423 19.0649L649.466 19.5699C644.9 19.9034 641.818 22.2091 640.22 26.487L637.653 33.5662C636.282 37.1676 633.601 38.9683 629.606 38.9683C623.899 38.9683 621.045 36.1576 621.045 30.5363C621.045 28.3926 623.499 21.1991 628.407 8.94652C630.576 3.54432 633.544 0.847979 637.31 0.847979C641.076 0.847979 645.528 1.26727 650.664 2.11524C655.8 2.95367 663.676 3.37284 674.291 3.37284H697.917C708.532 3.37284 716.408 3.01077 721.544 2.27713C726.681 1.55303 731.132 1.18142 734.899 1.18142C738.666 1.18142 741.633 3.77298 743.802 8.94652C748.71 21.1991 751.163 28.3926 751.163 30.5363C751.163 36.1576 748.31 38.9683 742.603 38.9683C738.609 38.9683 735.926 37.1676 734.556 33.5662L731.988 26.487C730.39 22.2091 727.536 19.7986 723.427 19.2365C720.346 18.7791 716.922 18.56 713.155 18.56C708.818 18.56 706.535 20.6942 706.307 24.9626C705.508 41.9505 705.109 56.9566 705.109 70.0001C705.109 84.6251 705.622 99.2405 706.649 113.856C706.992 118.353 709.275 120.602 713.497 120.602C715.895 120.602 717.921 121.421 719.575 123.05C721.231 124.679 722.058 126.68 722.058 129.043C722.058 131.292 721.231 133.254 719.575 134.941C717.921 136.627 715.895 137.475 713.497 137.475ZM553.743 120.602C566.184 120.602 572.633 116.724 573.089 108.968C573.546 101.203 573.889 91.5898 574.117 80.128C574.117 75.2879 571.206 72.8679 565.385 72.8679C555.912 72.9822 549.177 75.2593 545.183 79.6992C541.188 84.1486 539.19 89.9034 539.19 96.992C539.19 112.732 544.041 120.602 553.743 120.602ZM458.525 59.3767C458.525 47.6862 456.327 37.7583 451.933 29.6026C447.539 21.4564 442.431 17.3785 436.611 17.3785C430.789 17.3785 425.824 21.7613 421.715 30.5363C417.606 39.3018 415.551 48.9152 415.551 59.3767C421.258 59.7101 428.392 59.8817 436.953 59.8817C444.485 59.8817 451.677 59.7101 458.525 59.3767Z" fill="url(#paint0_linear)"/>
<defs>
<linearGradient id="paint0_linear" x1="562.213" y1="0" x2="562.213" y2="140" gradientUnits="userSpaceOnUse">
<stop stop-color="#F1A21C"/>
<stop offset="1" stop-color="#FC1405"/>
</linearGradient>
</defs>
</svg>
